<svg xmlns="http://www.w3.org/2000/svg" width="44.993" height="22.5" viewBox="0 0 44.993 22.5">
  <path id="Icon_awesome-gamepad" data-name="Icon awesome-gamepad" d="M33.75,6.75H11.25a11.25,11.25,0,1,0,8.03,19.125h6.434A11.249,11.249,0,1,0,33.75,6.75ZM18,19.406a.846.846,0,0,1-.844.844H13.5v3.656a.846.846,0,0,1-.844.844H9.844A.846.846,0,0,1,9,23.906V20.25H5.344a.846.846,0,0,1-.844-.844V16.594a.846.846,0,0,1,.844-.844H9V12.094a.846.846,0,0,1,.844-.844h2.813a.846.846,0,0,1,.844.844V15.75h3.656a.846.846,0,0,1,.844.844Zm12.938,4.781a3.375,3.375,0,1,1,3.375-3.375A3.376,3.376,0,0,1,30.938,24.188Zm5.625-5.625a3.375,3.375,0,1,1,3.375-3.375A3.376,3.376,0,0,1,36.563,18.563Z" transform="translate(0 -6.75)"/>
</svg>
