<svg xmlns="http://www.w3.org/2000/svg" xmlns:xlink="http://www.w3.org/1999/xlink" width="570.208" height="399.412" viewBox="0 0 570.208 399.412">
  <defs>
    <filter id="Path_9" x="0" y="2.5" width="570.208" height="188.236" filterUnits="userSpaceOnUse">
      <feOffset dy="3" input="SourceAlpha"/>
      <feGaussianBlur stdDeviation="3" result="blur"/>
      <feFlood flood-color="#121e2e" flood-opacity="0.388"/>
      <feComposite operator="in" in2="blur"/>
      <feComposite in="SourceGraphic"/>
    </filter>
    <filter id="Path_10" x="14.625" y="202.023" width="554.653" height="193.972" filterUnits="userSpaceOnUse">
      <feOffset dy="3" input="SourceAlpha"/>
      <feGaussianBlur stdDeviation="3" result="blur-2"/>
      <feFlood flood-color="#121e2e" flood-opacity="0.388"/>
      <feComposite operator="in" in2="blur-2"/>
      <feComposite in="SourceGraphic"/>
    </filter>
    <filter id="Path_11" x="209.127" y="0" width="146.564" height="61.411" filterUnits="userSpaceOnUse">
      <feOffset dy="3" input="SourceAlpha"/>
      <feGaussianBlur stdDeviation="3" result="blur-3"/>
      <feFlood flood-color="#121e2e" flood-opacity="0.388"/>
      <feComposite operator="in" in2="blur-3"/>
      <feComposite in="SourceGraphic"/>
    </filter>
    <filter id="Path_12" x="178.085" y="337.995" width="208.695" height="61.417" filterUnits="userSpaceOnUse">
      <feOffset dy="3" input="SourceAlpha"/>
      <feGaussianBlur stdDeviation="3" result="blur-4"/>
      <feFlood flood-color="#121e2e" flood-opacity="0.388"/>
      <feComposite operator="in" in2="blur-4"/>
      <feComposite in="SourceGraphic"/>
    </filter>
  </defs>
  <g id="logo" transform="translate(15.98 15.441)">
    <g id="Group_3" data-name="Group 3" transform="translate(0.016 0.059)">
      <g transform="matrix(1, 0, 0, 1, -16, -15.5)" filter="url(#Path_9)">
        <g id="Path_9-2" data-name="Path 9" transform="translate(15.98 15.44)" fill="#59ac51" stroke-linecap="round" stroke-linejoin="round">
          <path d="M 203.5431823730469 159.7953338623047 C 198.525390625 159.7953338623047 193.7012481689453 159.2556915283203 189.2048950195312 158.19140625 C 184.6791839599609 157.1201171875 180.3590393066406 155.4877624511719 176.3643188476562 153.3396911621094 C 172.3537445068359 151.1824798583984 168.7256011962891 148.5802001953125 165.5803985595703 145.6050567626953 C 162.4051818847656 142.6014862060547 159.6434631347656 139.1436920166016 157.3721008300781 135.3277740478516 C 155.0956726074219 131.5031280517578 153.3651123046875 127.3694076538086 152.2284698486328 123.0414123535156 C 151.1029663085938 118.7556991577148 150.5323181152344 114.1732635498047 150.5323181152344 109.4213409423828 C 150.5323181152344 104.6811218261719 151.1227569580078 100.1201934814453 152.287109375 95.86505126953125 C 153.4731750488281 91.53069305419922 155.2862548828125 87.39727020263672 157.6759643554688 83.57948303222656 C 160.0647430419922 79.76312255859375 162.9467468261719 76.31869506835938 166.2420349121094 73.34191131591797 C 169.51025390625 70.38948059082031 173.2768249511719 67.81440734863281 177.4371032714844 65.68804931640625 C 181.580322265625 63.56983947753906 186.0437469482422 61.95905303955078 190.7030334472656 60.90069580078125 C 195.3486022949219 59.8453369140625 200.3174591064453 59.31026840209961 205.4715423583984 59.31026840209961 C 213.2240295410156 59.31762313842773 220.8438262939453 60.66941070556641 228.1226043701172 63.32819366455078 C 231.9056854248047 64.71240997314453 235.4073181152344 66.31298065185547 238.5320281982422 68.08605194091797 C 241.7434692382812 69.90834045410156 244.6696014404297 71.97669219970703 247.2293243408203 74.23355102539062 L 249.7668151855469 76.47090911865234 L 247.6170349121094 79.08298492431641 L 230.5421142578125 99.82955169677734 L 228.1439666748047 102.743408203125 L 225.4186859130859 100.1329803466797 C 222.4933929443359 97.3310546875 219.3528289794922 95.25619506835938 215.8173217773438 93.78969573974609 L 215.8057556152344 93.784912109375 L 215.7942504882812 93.77998352050781 C 212.1816101074219 92.25112152099609 208.6643218994141 91.47590637207031 205.3399658203125 91.47590637207031 C 202.1043243408203 91.47590637207031 199.2681121826172 92.22998046875 196.6692504882812 93.78126525878906 L 196.6576843261719 93.78812408447266 L 196.6460418701172 93.79498291015625 C 194.1339569091797 95.26834106445312 192.0985412597656 97.41419219970703 190.7598266601562 100.0006942749023 C 189.2867126464844 102.8803482055664 188.5706024169922 105.9619827270508 188.5706024169922 109.4213409423828 C 188.5706024169922 113.0084838867188 189.3061828613281 116.1156234741211 190.8194580078125 118.9203414916992 L 190.8341064453125 118.9475555419922 L 190.8483276367188 118.9750518798828 C 192.2210998535156 121.6306228637695 194.3066101074219 123.838981628418 196.87939453125 125.3612670898438 L 196.8856811523438 125.3650512695312 L 196.8919677734375 125.368766784668 C 199.4519653320312 126.8980560302734 202.4114685058594 127.6734848022461 205.6881713867188 127.6734848022461 C 207.9082489013672 127.6734848022461 210.7444305419922 127.0359115600586 214.1404571533203 125.7753067016602 L 214.1404571533203 106.9281234741211 L 214.1404571533203 103.4281234741211 L 217.6404571533203 103.4281234741211 L 243.5560302734375 103.4281234741211 L 247.0560302734375 103.4281234741211 L 247.0560302734375 106.9281234741211 L 247.0560302734375 144.5208435058594 L 247.0560302734375 146.3806915283203 L 245.5146789550781 147.4214782714844 C 240.2251129150391 150.9931945800781 233.7114715576172 153.9050598144531 225.6016082763672 156.323486328125 L 225.5989685058594 156.3243408203125 L 225.5962524414062 156.3251190185547 C 217.7198944091797 158.6602020263672 210.5063171386719 159.7953338623047 203.5431823730469 159.7953338623047 Z M 47.29846572875977 158.6144866943359 L 43.79846572875977 158.6144866943359 L 13.54903602600098 158.6144866943359 L 10.04903602600098 158.6144866943359 L 10.04903602600098 155.1144866943359 L 10.04903602600098 36.81069564819336 L 4.530678749084473 36.81069564819336 C 2.857678651809692 36.81069564819336 1.267178654670715 36.31762313842773 -0.06889282166957855 35.384765625 C -1.314392805099487 34.5151252746582 -2.283321380615234 33.30576705932617 -2.870821475982666 31.88733863830566 C -3.460607051849365 30.46355247497559 -3.629821300506592 28.91676712036133 -3.360178470611572 27.41426658630371 C -3.071392774581909 25.80448150634766 -2.288821458816528 24.32383918762207 -1.097249984741211 23.13219451904297 L 23.05450248718262 -1.056039333343506 C 24.54349136352539 -2.572083950042725 26.61414527893066 -3.44109034538269 28.73946380615234 -3.44109034538269 C 30.86687850952148 -3.44109034538269 32.93950653076172 -2.570436477661133 34.4287223815918 -1.051738023757935 L 58.56043243408203 23.11649513244629 C 59.75419235229492 24.28277206420898 60.54025268554688 25.74678230285645 60.83425140380859 27.35233879089355 C 61.10696411132812 28.84133911132812 60.94589233398438 30.3814811706543 60.36860656738281 31.80626678466797 C 59.78860855102539 33.23755264282227 58.82589340209961 34.46155166625977 57.58439254760742 35.34590911865234 C 56.23925018310547 36.30419540405273 54.6361083984375 36.81069564819336 52.94832229614258 36.81069564819336 L 47.3861083984375 36.81069564819336 L 47.3861083984375 95.63690948486328 L 68.58068084716797 95.63690948486328 L 68.58068084716797 63.6843376159668 L 68.58068084716797 60.1843376159668 L 72.08068084716797 60.1843376159668 L 102.2863235473633 60.1843376159668 L 105.7863235473633 60.1843376159668 L 105.7863235473633 63.6843376159668 L 105.7863235473633 155.0268402099609 L 105.7863235473633 158.5268402099609 L 102.2863235473633 158.5268402099609 L 72.03681945800781 158.5268402099609 L 68.53681945800781 158.5268402099609 L 68.53681945800781 155.0268402099609 L 68.53681945800781 125.61376953125 L 47.29846572875977 125.61376953125 L 47.29846572875977 155.1144866943359 L 47.29846572875977 158.6144866943359 Z M 438.2773132324219 158.5706939697266 L 434.7773132324219 158.5706939697266 L 356.3293151855469 158.5706939697266 L 352.8293151855469 158.5706939697266 L 352.8293151855469 155.0706939697266 L 352.8293151855469 63.6843376159668 L 352.8293151855469 60.1843376159668 L 356.3293151855469 60.1843376159668 L 433.6403198242188 60.1843376159668 L 437.1403198242188 60.1843376159668 L 437.1403198242188 63.6843376159668 L 437.1403198242188 86.66119384765625 L 437.1403198242188 90.16119384765625 L 433.6403198242188 90.16119384765625 L 390.1664733886719 90.16119384765625 L 390.1664733886719 94.40976715087891 L 429.306396484375 94.40976715087891 L 432.806396484375 94.40976715087891 L 432.806396484375 97.90976715087891 L 432.806396484375 120.8014068603516 L 432.806396484375 124.3014068603516 L 429.306396484375 124.3014068603516 L 390.1664733886719 124.3014068603516 L 390.1664733886719 128.6814880371094 L 434.7773132324219 128.6814880371094 L 438.2773132324219 128.6814880371094 L 438.2773132324219 132.1814880371094 L 438.2773132324219 155.0706939697266 L 438.2773132324219 158.5706939697266 Z M 346.8691101074219 158.5706939697266 L 343.3691101074219 158.5706939697266 L 313.1633911132812 158.5706939697266 L 309.6633911132812 158.5706939697266 L 309.6633911132812 155.0706939697266 L 309.6633911132812 125.5699081420898 L 288.4274597167969 125.5699081420898 L 288.4274597167969 155.0706939697266 L 288.4274597167969 158.5706939697266 L 284.9274597167969 158.5706939697266 L 254.5903167724609 158.5706939697266 L 251.0903167724609 158.5706939697266 L 251.0903167724609 155.0706939697266 L 251.0903167724609 63.686767578125 L 251.0903167724609 60.186767578125 L 254.5903167724609 60.186767578125 L 284.9274597167969 60.186767578125 L 288.4274597167969 60.186767578125 L 288.4274597167969 63.686767578125 L 288.4274597167969 95.63690948486328 L 309.6633911132812 95.63690948486328 L 309.6633911132812 63.6843376159668 L 309.6633911132812 60.1843376159668 L 313.1633911132812 60.1843376159668 L 343.3691101074219 60.1843376159668 L 346.8691101074219 60.1843376159668 L 346.8691101074219 63.6843376159668 L 346.8691101074219 155.0706939697266 L 346.8691101074219 158.5706939697266 Z M 539.0347290039062 158.5268402099609 L 532.8422241210938 158.5268402099609 L 498.7799072265625 158.5268402099609 L 496.5415954589844 158.5268402099609 L 495.6027526855469 156.4950561523438 L 485.599853515625 134.8487701416016 L 480.0407409667969 134.8487701416016 L 480.0407409667969 155.0268402099609 L 480.0407409667969 158.5268402099609 L 476.5407409667969 158.5268402099609 L 446.2937622070312 158.5268402099609 L 442.7937622070312 158.5268402099609 L 442.7937622070312 155.0268402099609 L 442.7937622070312 63.6843376159668 L 442.7937622070312 60.1843376159668 L 446.2937622070312 60.1843376159668 L 490.509033203125 60.1843376159668 C 497.0215454101562 60.1843376159668 502.9163208007812 60.95862579345703 508.029541015625 62.48576736450195 C 513.2560424804688 64.04676818847656 517.8087768554688 66.43362426757812 521.5610961914062 69.58005523681641 C 529.131591796875 75.92826843261719 532.9700927734375 84.94526672363281 532.9700927734375 96.38076782226562 C 532.9700927734375 103.4008407592773 531.5785522460938 109.7435531616211 528.8340454101562 115.2327651977539 L 528.8283081054688 115.244270324707 L 528.8224487304688 115.2556991577148 C 527.432373046875 117.9856262207031 525.723388671875 120.4663391113281 523.742919921875 122.62890625 C 522.5072021484375 123.9782333374023 521.1446533203125 125.2269134521484 519.6704711914062 126.362419128418 L 535.8407592773438 153.2216186523438 L 539.0347290039062 158.5268402099609 Z M 479.9994506835938 104.9596252441406 L 490.4189758300781 104.9596252441406 C 491.8834838867188 104.9596252441406 493.8448486328125 104.6949310302734 495.1455078125 103.4834213256836 L 495.5047607421875 103.1074066162109 C 496.6390380859375 101.9206237792969 497.1975402832031 100.0256271362305 497.1647644042969 97.47505187988281 L 497.1644592285156 97.45262145996094 L 497.1644592285156 97.43012237548828 C 497.1644592285156 94.09555053710938 496.1905212402344 92.68855285644531 495.4580383300781 91.92026519775391 C 494.3575439453125 90.76598358154297 492.7093200683594 90.20497894287109 490.4189758300781 90.20497894287109 L 479.9994506835938 90.20497894287109 L 479.9994506835938 104.9596252441406 Z M 149.0373992919922 158.5268402099609 L 145.5373992919922 158.5268402099609 L 115.2879638671875 158.5268402099609 L 111.7879638671875 158.5268402099609 L 111.7879638671875 155.0268402099609 L 111.7879638671875 63.6843376159668 L 111.7879638671875 60.1843376159668 L 115.2879638671875 60.1843376159668 L 145.5373992919922 60.1843376159668 L 149.0373992919922 60.1843376159668 L 149.0373992919922 63.6843376159668 L 149.0373992919922 155.0268402099609 L 149.0373992919922 158.5268402099609 Z" stroke="none"/>
          <path d="M 203.5431823730469 156.2953491210938 C 210.1097259521484 156.2953491210938 217.0707244873047 155.2021179199219 224.6014099121094 152.9694366455078 C 232.0883331298828 150.7367401123047 238.4357299804688 147.9781951904297 243.5560302734375 144.5208129882812 L 243.5560302734375 106.9281234741211 L 217.6404113769531 106.9281234741211 L 217.6404113769531 128.1543579101562 C 212.8244934082031 130.1678924560547 208.8411865234375 131.1735076904297 205.6881866455078 131.1735076904297 C 201.7925720214844 131.1735076904297 198.2475738525391 130.2555847167969 195.0970306396484 128.3735046386719 C 191.9618835449219 126.5183563232422 189.4120330810547 123.8183517456055 187.7391815185547 120.582275390625 C 185.9447174072266 117.2563552856445 185.0706481933594 113.5360488891602 185.0706481933594 109.4212799072266 C 185.0706481933594 105.3065872192383 185.9471893310547 101.7177429199219 187.6514892578125 98.39181518554688 C 189.2921142578125 95.2220458984375 191.7966461181641 92.58158874511719 194.8754119873047 90.77589416503906 C 198.0284118652344 88.89381408691406 201.4857940673828 87.97596740722656 205.3400268554688 87.97596740722656 C 209.14794921875 87.97596740722656 213.1312561035156 88.85243225097656 217.1583404541016 90.55681610107422 C 221.2731018066406 92.26358795166016 224.7767181396484 94.6715087890625 227.8396453857422 97.60543060302734 L 244.9146423339844 76.85881805419922 C 240.0986480712891 72.61258697509766 234.1018829345703 69.24289703369141 226.9217224121094 66.61581420898438 C 220.0485687255859 64.10512542724609 212.7888793945312 62.81719970703125 205.4714965820312 62.81027603149414 C 195.6204986572266 62.81027603149414 186.8212585449219 64.82135772705078 179.0299530029297 68.80466461181641 C 171.2363433837891 72.78789520263672 165.1080322265625 78.30266571044922 160.6426391601562 85.43650817871094 C 156.1773376464844 92.57035827636719 154.0323333740234 100.5807418823242 154.0323333740234 109.4212799072266 C 154.0323333740234 118.3495864868164 156.1334991455078 126.4037399291992 160.3797149658203 133.5376586914062 C 164.6259460449219 140.6715087890625 170.5351104736328 146.2300415039062 178.0220336914062 150.2571258544922 C 185.5064086914062 154.2818145751953 194.0013427734375 156.2953491210938 203.5431823730469 156.2953491210938 M 43.79849243164062 155.114501953125 L 43.79849243164062 122.1137390136719 L 72.03687286376953 122.1137390136719 L 72.03687286376953 155.0268096923828 L 102.2863388061523 155.0268096923828 L 102.2863388061523 63.68435668945312 L 72.08064270019531 63.68435668945312 L 72.08064270019531 99.13442993164062 L 72.12448883056641 99.13689422607422 L 43.8861083984375 99.13689422607422 L 43.8861083984375 33.31066131591797 L 52.94833755493164 33.31066131591797 C 56.97541427612305 33.31066131591797 58.98895263671875 28.40704727172852 56.10133743286133 25.60712432861328 L 31.93633842468262 1.405585527420044 C 31.0955696105957 0.5444316864013672 29.94295310974121 0.05889325588941574 28.73949241638184 0.05889325588941574 C 27.53595352172852 0.05889325588941574 26.38333702087402 0.5444316864013672 25.54264640808105 1.405585527420044 L 1.377645611763 25.60712432861328 C -1.509969711303711 28.4947395324707 0.5011071562767029 33.31066131591797 4.530645847320557 33.31066131591797 L 13.54903030395508 33.31066131591797 L 13.54903030395508 155.114501953125 L 43.79849243164062 155.114501953125 M 434.77734375 155.0706634521484 L 434.77734375 132.1815032958984 L 386.66650390625 132.1815032958984 L 386.66650390625 120.8014297485352 L 429.3064270019531 120.8014297485352 L 429.3064270019531 97.90973663330078 L 386.66650390625 97.90973663330078 L 386.66650390625 86.66120147705078 L 433.6402587890625 86.66120147705078 L 433.6402587890625 63.68435668945312 L 356.3292541503906 63.68435668945312 L 356.3292541503906 155.0706634521484 L 434.77734375 155.0706634521484 M 343.3691101074219 155.0706634521484 L 343.3691101074219 63.68435668945312 L 313.1634216308594 63.68435668945312 L 313.1634216308594 99.13689422607422 L 284.927490234375 99.13689422607422 L 284.927490234375 63.68674087524414 L 254.59033203125 63.68674087524414 L 254.59033203125 155.0706634521484 L 284.927490234375 155.0706634521484 L 284.927490234375 122.0698928833008 L 313.1634216308594 122.0698928833008 L 313.1634216308594 155.0706634521484 L 343.3691101074219 155.0706634521484 M 532.84228515625 155.0268096923828 L 514.9783325195312 125.3544311523438 C 519.6629028320312 122.46435546875 523.2078857421875 118.5687408447266 525.7034912109375 113.6675872802734 C 528.1552734375 108.7639694213867 529.4700927734375 102.9886627197266 529.4700927734375 96.3807373046875 C 529.4700927734375 86.00620269775391 526.097900390625 77.95204925537109 519.312255859375 72.26197052001953 C 512.5265502929688 66.57196807861328 502.9409484863281 63.68435668945312 490.509033203125 63.68435668945312 L 446.2937316894531 63.68435668945312 L 446.2937316894531 155.0268096923828 L 476.5408020019531 155.0268096923828 L 476.5408020019531 131.3488159179688 L 487.8381042480469 131.3488159179688 L 498.7799682617188 155.0268096923828 L 532.84228515625 155.0268096923828 M 476.4994201660156 86.70497131347656 L 490.4189453125 86.70497131347656 C 493.6571960449219 86.70497131347656 496.1990356445312 87.62535858154297 497.9910278320312 89.50496673583984 C 499.7879638671875 91.38951110839844 500.6644897460938 93.97035217285156 500.6644897460938 97.43012237548828 C 500.708251953125 100.8436660766602 499.8755798339844 103.5998153686523 498.0349426269531 105.5257415771484 L 498.0373229980469 105.5256652832031 C 496.3305053710938 107.4515838623047 493.7033996582031 108.459587097168 490.4189453125 108.459587097168 L 476.4994201660156 108.459587097168 L 476.4994201660156 86.70497131347656 M 145.5374145507812 155.0268096923828 L 145.5374145507812 63.68435668945312 L 115.287956237793 63.68435668945312 L 115.287956237793 155.0268096923828 L 145.5374145507812 155.0268096923828 M 203.5431823730469 163.2953491210938 C 192.8898010253906 163.2953491210938 183.1878051757812 160.9828948974609 174.7067260742188 156.4222717285156 C 166.0668792724609 151.7750396728516 159.2230377197266 145.2802734375 154.3646392822266 137.1179656982422 C 153.7125244140625 136.0223693847656 153.1031951904297 134.9056091308594 152.5374145507812 133.7695159912109 L 152.5374145507812 155.0268096923828 C 152.5374145507812 158.892822265625 149.4034118652344 162.0268096923828 145.5374145507812 162.0268096923828 L 115.287956237793 162.0268096923828 C 112.3410263061523 162.0268096923828 109.8195266723633 160.2060241699219 108.7871475219727 157.6278686523438 C 107.754768371582 160.2060241699219 105.233268737793 162.0268096923828 102.2863388061523 162.0268096923828 L 72.03687286376953 162.0268096923828 C 68.17087554931641 162.0268096923828 65.03687286376953 158.892822265625 65.03687286376953 155.0268096923828 L 65.03687286376953 129.1137390136719 L 50.79849243164062 129.1137390136719 L 50.79849243164062 155.114501953125 C 50.79849243164062 158.9805145263672 47.66449356079102 162.114501953125 43.79849243164062 162.114501953125 L 13.54903030395508 162.114501953125 C 9.683030128479004 162.114501953125 6.549030303955078 158.9805145263672 6.549030303955078 155.114501953125 L 6.549030303955078 40.31066131591797 L 4.530645847320557 40.31066131591797 C -0.1473543643951416 40.31066131591797 -4.321892738342285 37.53004837036133 -6.104354381561279 33.2268180847168 C -7.890200614929199 28.91535568237305 -6.89627742767334 23.98150825500488 -3.572123527526855 20.6573543548584 L 20.58918380737305 -3.540414333343506 C 22.67841529846191 -5.681183815002441 25.66926193237305 -6.941106796264648 28.73949241638184 -6.941106796264648 C 31.80949211120605 -6.941106796264648 34.80033874511719 -5.681260585784912 36.94503021240234 -3.484491348266602 L 61.0547981262207 20.66112327575684 C 64.34072113037109 23.84589385986328 65.37625885009766 28.76774024963379 63.6124153137207 33.12066268920898 C 61.84256744384766 37.48843002319336 57.65664672851562 40.31066131591797 52.94833755493164 40.31066131591797 L 50.8861083984375 40.31066131591797 L 50.8861083984375 92.13689422607422 L 65.08064270019531 92.13689422607422 L 65.08064270019531 63.68435668945312 C 65.08064270019531 59.81835556030273 68.21464538574219 56.68435668945312 72.08064270019531 56.68435668945312 L 102.2863388061523 56.68435668945312 C 105.233268737793 56.68435668945312 107.754768371582 58.50514984130859 108.7871475219727 61.08329772949219 C 109.8195266723633 58.50514984130859 112.3410263061523 56.68435668945312 115.287956237793 56.68435668945312 L 145.5374145507812 56.68435668945312 C 149.4034118652344 56.68435668945312 152.5374145507812 59.81835556030273 152.5374145507812 63.68435668945312 L 152.5374145507812 85.56008148193359 C 153.2018432617188 84.25341796875 153.9256896972656 82.97423553466797 154.7091827392578 81.72251129150391 C 159.80810546875 73.57650756835938 166.9190368652344 67.13320159912109 175.8442535400391 62.57158660888672 C 184.6194915771484 58.08527755737305 194.5877990722656 55.81027603149414 205.4714965820312 55.81027603149414 C 213.6371765136719 55.81797027587891 221.6599578857422 57.24135589599609 229.323486328125 60.04074096679688 C 236.538330078125 62.68053817749023 242.5397491455078 65.94022369384766 247.59033203125 69.96957397460938 L 247.59033203125 63.68674087524414 C 247.59033203125 59.82073974609375 250.7243347167969 56.68674087524414 254.59033203125 56.68674087524414 L 284.927490234375 56.68674087524414 C 288.7934875488281 56.68674087524414 291.927490234375 59.82073974609375 291.927490234375 63.68674087524414 L 291.927490234375 92.13689422607422 L 306.1634216308594 92.13689422607422 L 306.1634216308594 63.68435668945312 C 306.1634216308594 59.81835556030273 309.2974243164062 56.68435668945312 313.1634216308594 56.68435668945312 L 343.3691101074219 56.68435668945312 C 346.2964477539062 56.68435668945312 348.8040466308594 58.48115158081055 349.8491821289062 61.03212356567383 C 350.8943176269531 58.48115158081055 353.4019165039062 56.68435668945312 356.3292541503906 56.68435668945312 L 433.6402587890625 56.68435668945312 C 436.432861328125 56.68435668945312 438.8436279296875 58.31988906860352 439.9669799804688 60.68511962890625 C 441.09033203125 58.31988906860352 443.5010986328125 56.68435668945312 446.2937316894531 56.68435668945312 L 490.509033203125 56.68435668945312 C 504.5234985351562 56.68435668945312 515.7274780273438 60.1207389831543 523.8099365234375 66.89812469482422 C 532.2106323242188 73.9425048828125 536.4700927734375 83.86189270019531 536.4700927734375 96.3807373046875 C 536.4700927734375 103.9492034912109 534.9541625976562 110.8185119628906 531.9644775390625 116.7980499267578 C 529.9426879882812 120.7689056396484 527.3472290039062 124.2148284912109 524.2063598632812 127.1106948852539 L 538.83935546875 151.4163513183594 C 540.1410522460938 153.5785064697266 540.1780395507812 156.2740478515625 538.936279296875 158.4711303710938 C 537.6943969726562 160.6682739257812 535.3660278320312 162.0268096923828 532.84228515625 162.0268096923828 L 498.7799682617188 162.0268096923828 C 496.0508117675781 162.0268096923828 493.5704956054688 160.4406585693359 492.4256591796875 157.9631958007812 L 483.5408020019531 138.7365264892578 L 483.5408020019531 155.0268096923828 C 483.5408020019531 158.892822265625 480.4067993164062 162.0268096923828 476.5408020019531 162.0268096923828 L 446.2937316894531 162.0268096923828 C 443.9164123535156 162.0268096923828 441.81591796875 160.8417510986328 440.5507202148438 159.0301208496094 C 439.2889404296875 160.8664398193359 437.1737670898438 162.0706634521484 434.77734375 162.0706634521484 L 356.3292541503906 162.0706634521484 C 353.4019165039062 162.0706634521484 350.8943176269531 160.2738647460938 349.8491821289062 157.722900390625 C 348.8040466308594 160.2738647460938 346.2964477539062 162.0706634521484 343.3691101074219 162.0706634521484 L 313.1634216308594 162.0706634521484 C 309.2974243164062 162.0706634521484 306.1634216308594 158.9366607666016 306.1634216308594 155.0706634521484 L 306.1634216308594 129.0699005126953 L 291.927490234375 129.0699005126953 L 291.927490234375 155.0706634521484 C 291.927490234375 158.9366607666016 288.7934875488281 162.0706634521484 284.927490234375 162.0706634521484 L 254.59033203125 162.0706634521484 C 250.7243347167969 162.0706634521484 247.59033203125 158.9366607666016 247.59033203125 155.0706634521484 L 247.59033203125 150.2413330078125 C 247.5516815185547 150.2685852050781 247.5125579833984 150.2955932617188 247.4732666015625 150.3221282958984 C 241.8846435546875 154.0957336425781 235.0574951171875 157.1558990478516 226.6018829345703 159.6775054931641 C 218.3871765136719 162.1129760742188 210.8481140136719 163.2953491210938 203.5431823730469 163.2953491210938 Z M 434.7670288085938 125.181510925293 L 434.77734375 125.181510925293 C 436.4984436035156 125.181510925293 438.07470703125 125.8028564453125 439.2937316894531 126.8331985473633 L 439.2937316894531 90.78976440429688 C 438.2362670898438 92.23535919189453 436.6376647949219 93.26016235351562 434.7961730957031 93.56620788574219 C 435.74169921875 94.75968933105469 436.3064270019531 96.26885986328125 436.3064270019531 97.90973663330078 L 436.3064270019531 120.8014297485352 C 436.3064270019531 122.4590606689453 435.7300415039062 123.9823684692383 434.7670288085938 125.181510925293 Z M 205.3400268554688 94.97596740722656 C 202.7536468505859 94.97596740722656 200.5042572021484 95.56819915771484 198.4632568359375 96.78650665283203 C 196.4754943847656 97.95258331298828 194.9026489257812 99.61081695556641 193.8681793212891 101.6094284057617 C 192.6459503173828 103.9946594238281 192.0706481933594 106.4849700927734 192.0706481933594 109.4212799072266 C 192.0706481933594 112.4137420654297 192.6689605712891 114.9772796630859 193.8997192382812 117.258430480957 C 195.0282592773438 119.4391250610352 196.6549530029297 121.1616592407227 198.6618041992188 122.3491973876953 C 200.7250366210938 123.5816650390625 203.0151824951172 124.1735076904297 205.6881866455078 124.1735076904297 C 206.6912536621094 124.1735076904297 208.2706298828125 123.9857864379883 210.6404113769531 123.2672500610352 L 210.6404113769531 106.9281234741211 C 210.6404113769531 103.062126159668 213.7744140625 99.92812347412109 217.6404113769531 99.92812347412109 L 219.7127380371094 99.92812347412109 C 218.0647735595703 98.75286865234375 216.3303985595703 97.79171752929688 214.4763336181641 97.02265930175781 C 211.2516479492188 95.65805053710938 208.1933441162109 94.97596740722656 205.3400268554688 94.97596740722656 Z M 483.4994201660156 101.459587097168 L 490.4189453125 101.459587097168 C 491.798095703125 101.459587097168 492.5628051757812 101.1488952636719 492.7986450195312 100.8828201293945 C 493.426025390625 100.2185821533203 493.6844787597656 99.03258514404297 493.6650390625 97.51988983154297 C 493.6644897460938 95.891357421875 493.4156494140625 94.85020446777344 492.9249572753906 94.33558654785156 C 492.4279479980469 93.81427764892578 491.2878723144531 93.70497131347656 490.4189453125 93.70497131347656 L 483.4994201660156 93.70497131347656 L 483.4994201660156 101.459587097168 Z M 234.9939270019531 99.92812347412109 L 243.5560302734375 99.92812347412109 C 245.0583953857422 99.92812347412109 246.4500274658203 100.4012756347656 247.59033203125 101.2068939208984 L 247.59033203125 84.62312316894531 L 234.9939270019531 99.92812347412109 Z" stroke="none" fill="#fff"/>
        </g>
      </g>
    </g>
    <g transform="matrix(1, 0, 0, 1, -15.98, -15.44)" filter="url(#Path_10)">
      <g id="Path_10-2" data-name="Path 10" transform="translate(24.6 146.57)" fill="#c75555" stroke-linecap="round" stroke-linejoin="round">
        <path d="M 449.3158264160156 233.9249114990234 C 447.1330261230469 233.9249114990234 445.0883483886719 233.0835113525391 443.5584106445312 231.5557098388672 L 418.5616149902344 206.5612335205078 C 417.3628234863281 205.3635101318359 416.5811462402344 203.8621673583984 416.3020935058594 202.2205047607422 C 416.0450744628906 200.7089080810547 416.2240295410156 199.1495056152344 416.8195495605469 197.7107696533203 C 417.4178161621094 196.2656402587891 418.3996276855469 195.0313110351562 419.65869140625 194.1413116455078 C 421.0242309570312 193.1761779785156 422.6506958007812 192.6659698486328 424.3622131347656 192.6659698486328 L 430.3188781738281 192.6659698486328 L 430.3188781738281 69.54624176025391 L 430.3188781738281 66.04624176025391 L 433.8188781738281 66.04624176025391 L 479.4365539550781 66.04624176025391 C 486.1680908203125 66.04624176025391 492.2293395996094 66.82917022705078 497.4518127441406 68.37323760986328 C 502.8374938964844 69.96550750732422 507.5210876464844 72.41963958740234 511.37255859375 75.66737365722656 C 515.2832641601562 78.96636962890625 518.2536010742188 82.99324035644531 520.2015991210938 87.63650512695312 C 522.1105346679688 92.18656921386719 523.0784301757812 97.43910217285156 523.0784301757812 103.2481689453125 C 523.0784301757812 110.6660919189453 521.669677734375 117.1773681640625 518.8917236328125 122.6006622314453 C 516.5645141601562 127.2101058959961 513.3951416015625 131.0561676025391 509.4461669921875 134.0704193115234 L 526.2516479492188 161.8349761962891 L 529.4671630859375 167.1473083496094 L 523.2574462890625 167.1473083496094 L 488.1042785644531 167.1473083496094 L 485.8636169433594 167.1473083496094 L 484.9256896972656 165.1123657226562 L 474.5663452148438 142.6365661621094 L 468.4010314941406 142.6365661621094 L 468.4010314941406 192.6659698486328 L 474.27001953125 192.6659698486328 C 475.986083984375 192.6659698486328 477.6158752441406 193.1703643798828 478.9833679199219 194.1247100830078 C 480.2570190429688 195.0135650634766 481.2474975585938 196.2497100830078 481.8476257324219 197.6994323730469 C 482.4447631835938 199.1419067382812 482.6186828613281 200.7073669433594 482.3505554199219 202.2265014648438 C 482.0622253417969 203.860107421875 481.2735595703125 205.3592987060547 480.0697631835938 206.5621032714844 L 455.0728759765625 231.5542449951172 C 453.5440979003906 233.0829010009766 451.4994812011719 233.9249114990234 449.3158264160156 233.9249114990234 Z M 468.61767578125 112.1338348388672 L 479.4341430664062 112.1338348388672 C 482.6392822265625 112.1338348388672 483.9516906738281 111.078369140625 484.6600952148438 110.2845077514648 C 485.9189453125 108.8755035400391 486.5301513671875 106.8747024536133 486.5301513671875 104.1661071777344 C 486.5301513671875 101.6067733764648 485.935546875 99.72537231445312 484.7124328613281 98.41423797607422 L 484.6982727050781 98.39910888671875 L 484.6842956542969 98.38377380371094 C 483.61328125 97.20810699462891 481.9110107421875 96.63663482666016 479.4803466796875 96.63663482666016 L 468.6639404296875 96.63663482666016 L 468.6639404296875 96.68043518066406 L 468.61767578125 96.68043518066406 L 468.61767578125 112.1338348388672 Z M 131.5334930419922 168.3695068359375 C 126.3911514282227 168.3695068359375 121.4128189086914 167.8101043701172 116.7366180419922 166.7067718505859 C 112.05322265625 165.6017761230469 107.5438842773438 163.9210357666016 103.3338165283203 161.7111663818359 C 94.81881713867188 157.2407379150391 88.1517333984375 150.9817657470703 83.51710510253906 143.1075592041016 L 83.51708984375 143.1075744628906 C 82.15461730957031 140.8047180175781 80.98092651367188 138.4071655273438 80.00548553466797 135.9375305175781 L 80.00548553466797 137.6903076171875 L 80.00548553466797 163.6473083496094 L 80.00548553466797 167.1473083496094 L 76.50548553466797 167.1473083496094 L 6.024019241333008 167.1473083496094 L 2.524019479751587 167.1473083496094 L 2.524019479751587 163.6473083496094 L 2.524019479751587 69.41470336914062 L 2.524019479751587 65.91470336914062 L 6.024019241333008 65.91470336914062 L 35.26548767089844 65.91470336914062 L 35.26548767089844 69.41350555419922 L 38.76548767089844 69.41230773925781 C 38.76548767089844 88.86154174804688 38.77166748046875 123.2789688110352 38.79332733154297 134.1903076171875 L 76.50548553466797 134.1903076171875 L 79.35270690917969 134.1903076171875 C 78.92001342773438 132.9628601074219 78.53561401367188 131.7194366455078 78.20062255859375 130.4627075195312 C 77.01841735839844 126.0275039672852 76.41902160644531 121.3029022216797 76.41902160644531 116.4202423095703 C 76.41902160644531 111.5531692504883 77.01908874511719 106.8521728515625 78.20248413085938 102.4479751586914 C 79.38455200195312 98.04863739013672 81.17748260498047 93.8370361328125 83.53148651123047 89.93023681640625 C 85.88215637207031 86.02903747558594 88.74335479736328 82.50397491455078 92.03562164306641 79.45297241210938 C 95.32167816162109 76.40763092041016 99.12490081787109 73.75352478027344 103.3398895263672 71.56429290771484 C 111.7007293701172 67.17735290527344 121.1864776611328 64.95297241210938 131.5334930419922 64.95297241210938 C 136.6656799316406 64.95297241210938 141.6424255371094 65.51023864746094 146.3254241943359 66.60930633544922 C 150.9996185302734 67.70623779296875 155.5060882568359 69.37203979492188 159.7196197509766 71.56044006347656 C 163.9378204345703 73.75117492675781 167.7470855712891 76.41036987304688 171.0416870117188 79.46417236328125 C 174.3394165039062 82.52083587646484 177.2245483398438 86.06810760498047 179.6168212890625 90.00750732421875 L 179.6200256347656 90.01270294189453 L 179.6231536865234 90.01790618896484 C 184.3426818847656 97.85050201416016 186.7356872558594 106.7491073608398 186.7356872558594 116.4665069580078 C 186.7356872558594 121.3888397216797 186.14794921875 126.1087036132812 184.9888916015625 130.4950408935547 C 183.8088226318359 134.9604339599609 182.0014190673828 139.215576171875 179.6168212890625 143.1421051025391 C 177.2195587158203 147.0897064208984 174.3384857177734 150.6497650146484 171.0537567138672 153.7233123779297 C 167.7481079101562 156.8163452148438 163.9414520263672 159.5027313232422 159.7398986816406 161.7076416015625 C 151.4060668945312 166.1279602050781 141.9157104492188 168.3695068359375 131.5334930419922 168.3695068359375 Z M 123.6702651977539 100.3500061035156 C 121.0962677001953 101.9777145385742 118.9807662963867 104.2589492797852 117.5515518188477 106.9481048583984 L 117.5419540405273 106.9662399291992 L 117.5320892333984 106.9843063354492 C 115.9861526489258 109.8123016357422 115.2023544311523 113.075439453125 115.2023544311523 116.6831741333008 C 115.2023544311523 120.2211685180664 115.9919509887695 123.4959030151367 117.5492858886719 126.4164352416992 C 119.1000823974609 129.3285675048828 121.1550216674805 131.5910339355469 123.6580200195312 133.1426391601562 C 126.2717514038086 134.7615661621094 128.948486328125 135.5489044189453 131.8402862548828 135.5489044189453 L 131.8494873046875 135.5489044189453 L 131.8586883544922 135.5489654541016 L 131.9325561523438 135.5491790771484 C 134.7078857421875 135.5491027832031 137.3968200683594 134.7374420166016 139.7086181640625 133.2019653320312 L 139.7264251708984 133.1901702880859 L 139.7443542480469 133.1785125732422 C 142.1040802001953 131.6523742675781 144.0498199462891 129.3992309570312 145.5275573730469 126.4817733764648 L 145.6507720947266 126.2385025024414 C 147.0328216552734 123.405158996582 147.733154296875 120.1921768188477 147.733154296875 116.6831741333008 C 147.733154296875 113.0280532836914 147.01416015625 109.8284301757812 145.5353546142578 106.9023818969727 C 144.0548706054688 104.0585098266602 142.1544647216797 101.9019241333008 139.7260894775391 100.3098373413086 L 139.7195587158203 100.3055725097656 L 139.7130126953125 100.3012390136719 C 137.3340911865234 98.72630310058594 134.8324890136719 97.99277496337891 131.8402862548828 97.99277496337891 C 128.9085693359375 97.99277496337891 126.2360382080078 98.76377868652344 123.6702651977539 100.3500061035156 Z M 306.9501647949219 167.1473083496094 L 304.4112854003906 167.1473083496094 L 272.367431640625 167.1473083496094 L 269.58642578125 167.1473083496094 L 268.9579467773438 164.438232421875 L 259.2635192871094 122.6505126953125 L 249.2393493652344 164.4633026123047 L 248.5958862304688 167.1473083496094 L 245.8358154296875 167.1473083496094 L 213.7919464111328 167.1473083496094 L 211.2474822998047 167.1473083496094 L 210.4626159667969 164.7268981933594 L 179.9063568115234 70.49430847167969 L 178.4213562011719 65.91470336914062 L 183.2356872558594 65.91470336914062 L 216.5967559814453 65.91470336914062 L 219.3807525634766 65.91470336914062 L 220.0070190429688 68.62737274169922 L 230.8316345214844 115.5130004882812 L 241.416748046875 68.77317047119141 L 242.0315551757812 66.05830383300781 L 244.8150787353516 66.04624176025391 L 275.1522216796875 65.91477203369141 L 277.9484252929688 65.90270233154297 L 278.5776977539062 68.62717437744141 L 289.4028930664062 115.4995803833008 L 299.9918823242188 68.64317321777344 L 300.6084899902344 65.91470336914062 L 303.4058227539062 65.91470336914062 L 335.1866760253906 65.91470336914062 L 337.6859436035156 65.91470336914062 L 337.6859436035156 65.91230773925781 L 341.1859436035156 65.91230773925781 L 420.9487609863281 65.91230773925781 L 424.4487609863281 65.91230773925781 L 424.4487609863281 69.41230773925781 L 424.4487609863281 93.13417053222656 L 424.4487609863281 96.63417053222656 L 420.9487609863281 96.63417053222656 L 375.9409484863281 96.63417053222656 L 375.9409484863281 101.1481704711914 L 416.4371643066406 101.1481704711914 L 419.9371643066406 101.1481704711914 L 419.9371643066406 104.6481704711914 L 419.9371643066406 128.2823791503906 L 419.9371643066406 131.7823791503906 L 416.4371643066406 131.7823791503906 L 375.9409484863281 131.7823791503906 L 375.9409484863281 136.5130310058594 L 422.0857543945312 136.5130310058594 L 425.5857543945312 136.5130310058594 L 425.5857543945312 140.0130310058594 L 425.5858154296875 163.6448364257812 L 425.5858154296875 167.1448364257812 L 422.0858154296875 167.1448364257812 L 341.1859436035156 167.1448364257812 L 337.6859436035156 167.1448364257812 L 337.6859436035156 163.6448364257812 L 337.6859436035156 73.03598022460938 L 307.7383422851562 164.7339019775391 L 306.9501647949219 167.1473083496094 Z" stroke="none"/>
        <path d="M 131.5334777832031 68.45295715332031 C 121.7262573242188 68.45295715332031 112.7956237792969 70.55416870117188 104.9604797363281 74.66645812988281 C 97.03533935546875 78.78123474121094 90.90704345703125 84.4713134765625 86.52932739257812 91.73660278320312 C 82.15167236328125 99.001953125 79.91897583007812 107.2289581298828 79.91897583007812 116.4202423095703 C 79.91897583007812 125.6552429199219 82.15167236328125 133.9261627197266 86.52932739257812 141.3253784179688 C 90.90704345703125 148.7660217285156 97.12298583984375 154.4974517822266 104.9604797363281 158.6121673583984 C 112.8832702636719 162.7707366943359 121.7262573242188 164.8695220947266 131.5334777832031 164.8695220947266 C 141.3382568359375 164.8695220947266 150.2689819335938 162.7707366943359 158.1064758300781 158.6121673583984 C 166.0291748046875 154.4560241699219 172.1599731445312 148.6783752441406 176.6253356933594 141.3253784179688 C 181.0906066894531 133.9723815917969 183.2356872558594 125.6990966796875 183.2356872558594 116.4664459228516 C 183.2356872558594 107.3166656494141 181.0029602050781 99.089599609375 176.6253356933594 91.82423400878906 C 172.1599731445312 84.4713134765625 166.0292663574219 78.78123474121094 158.1064758300781 74.66645812988281 C 150.1837463378906 70.55174255371094 141.3382568359375 68.45295715332031 131.5334777832031 68.45295715332031 M 148.65234375 128.063232421875 L 148.64990234375 128.063232421875 C 146.943115234375 131.4329528808594 144.6228332519531 134.1915283203125 141.6450500488281 136.1174468994141 C 138.740478515625 138.0466613769531 135.3253784179688 139.0673522949219 131.8402709960938 139.0488739013672 C 128.2490539550781 139.0488739013672 124.9231262207031 138.0433044433594 121.8139038085938 136.1174468994141 C 118.7071838378906 134.1915283203125 116.2554016113281 131.4329528808594 114.4609069824219 128.063232421875 C 112.6641235351562 124.6935272216797 111.7023315429688 120.8417358398438 111.7023315429688 116.6831665039062 C 111.7023315429688 112.5270233154297 112.6202697753906 108.6728057861328 114.4609069824219 105.3055267333984 C 116.1806945800781 102.0697326660156 118.7151794433594 99.33880615234375 121.8139038085938 97.3828125 C 124.9231262207031 95.45695495605469 128.2052001953125 94.49273681640625 131.8402709960938 94.49273681640625 C 135.4729614257812 94.49273681640625 138.6698303222656 95.41310119628906 141.6450500488281 97.3828125 C 144.5789794921875 99.30630493164062 146.8992614746094 101.9358825683594 148.64990234375 105.3055267333984 C 150.3566284179688 108.6752319335938 151.2331237792969 112.4393768310547 151.2331237792969 116.6831665039062 C 151.2331237792969 120.7978820800781 150.4004821777344 124.6058807373047 148.65234375 128.063232421875 M 35.26547241210938 69.41230773925781 L 35.26547241210938 69.41473388671875 L 6.02398681640625 69.41473388671875 L 6.02398681640625 163.6473083496094 L 76.50546264648438 163.6473083496094 L 76.50546264648438 137.6903076171875 L 35.30926513671875 137.6903076171875 C 35.26547241210938 137.6903076171875 35.26547241210938 69.41230773925781 35.26547241210938 69.41230773925781 M 341.1859741210938 69.41230773925781 L 341.1859741210938 163.6448822021484 L 422.0857543945312 163.6448822021484 L 422.0857543945312 140.0130920410156 L 372.4409790039062 140.0130920410156 L 372.4409790039062 128.2823791503906 L 416.4371032714844 128.2823791503906 L 416.4371032714844 104.6481628417969 L 372.4409790039062 104.6481628417969 L 372.4409790039062 93.13417053222656 L 420.9486694335938 93.13417053222656 L 420.9486694335938 69.41230773925781 L 341.1859741210938 69.41230773925781 M 303.40576171875 69.4146728515625 L 289.4399719238281 131.2138061523438 L 275.1674194335938 69.41473388671875 L 244.8302612304688 69.54623413085938 L 230.8644714355469 131.2138061523438 L 216.5967712402344 69.41473388671875 L 183.2356872558594 69.41473388671875 L 213.7919006347656 163.6473083496094 L 245.8358154296875 163.6473083496094 L 259.3195495605469 107.4043121337891 L 272.3674011230469 163.6473083496094 L 304.4113159179688 163.6473083496094 L 335.1867065429688 69.4146728515625 L 303.40576171875 69.4146728515625 M 433.81884765625 69.54617309570312 L 433.81884765625 196.1659545898438 L 424.3622436523438 196.1659545898438 C 420.20361328125 196.1659545898438 418.146240234375 201.1985931396484 421.0363159179688 204.0862426757812 L 446.0316162109375 229.0791015625 C 447.8284912109375 230.8734436035156 450.8037719726562 230.8734436035156 452.5981750488281 229.0791015625 L 477.5958251953125 204.0862426757812 C 480.5297546386719 201.1548156738281 478.472412109375 196.1659545898438 474.2700500488281 196.1659545898438 L 464.9009704589844 196.1659545898438 L 464.9009704589844 139.1365203857422 L 476.8069763183594 139.1365203857422 L 488.1043395996094 163.6473083496094 L 523.2573852539062 163.6473083496094 L 504.7385559082031 133.0520935058594 C 509.5544738769531 130.1205902099609 513.2310180664062 126.0496673583984 515.7704467773438 121.0170288085938 C 518.351318359375 115.984375 519.5784301757812 109.9875946044922 519.5784301757812 103.2481689453125 C 519.5784301757812 92.52545166015625 516.12109375 84.25216674804688 509.1163330078125 78.343017578125 C 502.1114807128906 72.43623352050781 492.2629089355469 69.54617309570312 479.4365539550781 69.54617309570312 L 433.81884765625 69.54617309570312 M 479.4341125488281 115.6338043212891 L 465.11767578125 115.6338043212891 L 465.11767578125 93.18045043945312 L 479.4804077148438 93.1365966796875 C 482.85009765625 93.1365966796875 485.4771728515625 94.05694580078125 487.2716064453125 96.02667236328125 C 489.0660400390625 97.95016479492188 490.0301208496094 100.6210174560547 490.0301208496094 104.1660919189453 C 490.0301208496094 107.7549591064453 489.1098327636719 110.5573120117188 487.2716064453125 112.6146697998047 C 485.4771728515625 114.6258087158203 482.8938903808594 115.6338043212891 479.4341125488281 115.6338043212891 M 131.5334777832031 61.45295715332031 C 142.3616027832031 61.45295715332031 152.3876037597656 63.80851745605469 161.3328247070312 68.45431518554688 C 169.5940856933594 72.74490356445312 176.3017883300781 78.68927001953125 181.3014526367188 86.1435546875 L 176.5770568847656 71.57388305664062 C 175.8860473632812 69.44309997558594 176.2566223144531 67.11038208007812 177.5737609863281 65.29859924316406 C 178.8909606933594 63.48674011230469 180.9956970214844 62.41473388671875 183.2356872558594 62.41473388671875 L 216.5967712402344 62.41473388671875 C 219.8561096191406 62.41473388671875 222.6841125488281 64.66424560546875 223.4173278808594 67.84002685546875 L 230.7987365722656 99.81184387207031 L 238.0031127929688 68.00009155273438 C 238.7229614257812 64.82167053222656 241.5409851074219 62.56045532226562 244.7998962402344 62.54631042480469 L 275.1370239257812 62.41481018066406 C 278.4037475585938 62.39710998535156 281.2518920898438 64.65293884277344 281.9879150390625 67.83952331542969 L 289.3658447265625 99.78535461425781 L 296.577880859375 67.87167358398438 C 297.2990417480469 64.6806640625 300.13427734375 62.4146728515625 303.40576171875 62.4146728515625 L 335.1867065429688 62.4146728515625 C 336.2373657226562 62.4146728515625 337.2581176757812 62.65048217773438 338.1819458007812 63.08786010742188 C 339.09228515625 62.65464782714844 340.1106872558594 62.41230773925781 341.1859741210938 62.41230773925781 L 420.9486694335938 62.41230773925781 C 423.8609313964844 62.41230773925781 426.3577575683594 64.19064331054688 427.4124755859375 66.72068786621094 C 428.4984436035156 64.26205444335938 430.958251953125 62.54617309570312 433.81884765625 62.54617309570312 L 479.4365539550781 62.54617309570312 C 493.9052734375 62.54617309570312 505.4092712402344 66.06053161621094 513.6288452148438 72.99166870117188 C 522.221923828125 80.24066162109375 526.5784301757812 90.42008972167969 526.5784301757812 103.2481689453125 C 526.5784301757812 111.2330932617188 525.0377807617188 118.2861022949219 521.9992065429688 124.2112426757812 C 519.9365844726562 128.2991485595703 517.2550659179688 131.8551330566406 513.9962768554688 134.8285980224609 L 529.245849609375 160.0225982666016 C 530.5542602539062 162.1842346191406 530.5961303710938 164.8831634521484 529.35546875 167.0843811035156 C 528.1148071289062 169.2855987548828 525.7841796875 170.6473083496094 523.2573852539062 170.6473083496094 L 488.1043395996094 170.6473083496094 C 485.3726806640625 170.6473083496094 482.8905334472656 169.0582427978516 481.7471313476562 166.5774536132812 L 472.3256225585938 146.1365203857422 L 471.9009704589844 146.1365203857422 L 471.9009704589844 189.1659545898438 L 474.2700500488281 189.1659545898438 C 479.0284729003906 189.1659545898438 483.2721862792969 191.9900970458984 485.0814819335938 196.3608093261719 C 486.8856201171875 200.7188720703125 485.889404296875 205.6950225830078 482.54345703125 209.0380859375 L 457.5474853515625 234.0293121337891 C 455.3576965332031 236.2188720703125 452.4342651367188 237.4248809814453 449.3158264160156 237.4248809814453 C 446.1991882324219 237.4248809814453 443.2762451171875 236.2200927734375 441.0853881835938 234.0323791503906 L 416.0868225097656 209.0362396240234 C 412.7598266601562 205.7120208740234 411.7774047851562 200.7403106689453 413.585693359375 196.3720245361328 C 415.3978881835938 191.9945220947266 419.6278991699219 189.1659545898438 424.3622436523438 189.1659545898438 L 426.81884765625 189.1659545898438 L 426.81884765625 168.8022613525391 C 425.5727233886719 169.9465484619141 423.9109191894531 170.6448822021484 422.0857543945312 170.6448822021484 L 341.1859741210938 170.6448822021484 C 337.3199768066406 170.6448822021484 334.1859741210938 167.5108795166016 334.1859741210938 163.6448822021484 L 334.1859741210938 95.026611328125 L 311.0654907226562 165.8204498291016 C 310.1251831054688 168.6995239257812 307.4400634765625 170.6473083496094 304.4113159179688 170.6473083496094 L 272.3674011230469 170.6473083496094 C 269.11083984375 170.6473083496094 266.2844848632812 168.4015197753906 265.5484619140625 165.2292327880859 L 259.2076110839844 137.8968963623047 L 252.6429748535156 165.2792358398438 C 251.88818359375 168.4273834228516 249.0731811523438 170.6473083496094 245.8358154296875 170.6473083496094 L 213.7919006347656 170.6473083496094 C 210.7577514648438 170.6473083496094 208.0691223144531 168.6926727294922 207.1332702636719 165.8064575195312 L 190.1632995605469 113.4726257324219 C 190.2115478515625 114.4625549316406 190.2356872558594 115.4601440429688 190.2356872558594 116.4664459228516 C 190.2356872558594 127.0385894775391 187.6695556640625 136.6248168945312 182.6084594726562 144.9588165283203 C 177.4609680175781 153.4350891113281 170.3114013671875 160.1143798828125 161.3583374023438 164.8110198974609 C 152.5410461425781 169.4895172119141 142.4966735839844 171.8695220947266 131.5334777832031 171.8695220947266 C 120.6664123535156 171.8695220947266 110.6314086914062 169.4944458007812 101.7071838378906 164.8102416992188 C 94.30279541015625 160.9229278564453 88.20010375976562 155.7608184814453 83.50546264648438 149.4238891601562 L 83.50546264648438 163.6473083496094 C 83.50546264648438 167.5133056640625 80.3714599609375 170.6473083496094 76.50546264648438 170.6473083496094 L 6.02398681640625 170.6473083496094 C 2.157958984375 170.6473083496094 -0.97601318359375 167.5133056640625 -0.97601318359375 163.6473083496094 L -0.97601318359375 69.41473388671875 C -0.97601318359375 65.54873657226562 2.157958984375 62.41473388671875 6.02398681640625 62.41473388671875 L 35.26547241210938 62.41473388671875 C 39.1314697265625 62.41473388671875 42.26547241210938 65.54631042480469 42.26547241210938 69.41230773925781 C 42.26547241210938 69.41288757324219 42.26480102539062 113.3868713378906 42.28720092773438 130.6903076171875 L 74.65029907226562 130.6903076171875 C 73.49905395507812 126.1369018554688 72.91897583007812 121.3696899414062 72.91897583007812 116.4202423095703 C 72.91897583007812 106.0298767089844 75.48089599609375 96.50967407226562 80.53359985351562 88.12394714355469 C 85.57376098632812 79.75923156738281 92.7069091796875 73.14131164550781 101.7348937988281 68.45394897460938 C 110.5766296386719 63.813232421875 120.6115417480469 61.45295715332031 131.5334777832031 61.45295715332031 Z M 426.81884765625 134.855712890625 L 426.81884765625 96.94898986816406 C 425.7076110839844 98.65530395507812 423.872314453125 99.84722900390625 421.7489013671875 100.0889282226562 C 422.8011169433594 101.3137664794922 423.4371032714844 102.9067687988281 423.4371032714844 104.6481628417969 L 423.4371032714844 128.2823791503906 C 423.4371032714844 130.1063690185547 422.7396240234375 131.7672576904297 421.5966796875 133.0130920410156 L 422.0857543945312 133.0130920410156 C 423.9109191894531 133.0130920410156 425.5727233886719 133.71142578125 426.81884765625 134.855712890625 Z M 479.4341125488281 108.6338043212891 C 480.7666015625 108.6338043212891 481.6461791992188 108.4052429199219 482.0484619140625 107.9543151855469 C 482.7008972167969 107.2240905761719 483.0301208496094 105.9507446289062 483.0301208496094 104.1660919189453 C 483.0301208496094 102.5574493408203 482.7350463867188 101.4255218505859 482.1531066894531 100.8016662597656 C 481.7523193359375 100.3624572753906 480.7741088867188 100.1365966796875 479.4804077148438 100.1365966796875 L 472.11767578125 100.1365966796875 L 472.11767578125 108.6338043212891 L 479.4341125488281 108.6338043212891 Z M 142.4071655273438 124.9012756347656 C 143.6357421875 122.4699401855469 144.2331237792969 119.7815856933594 144.2331237792969 116.6831665039062 C 144.2331237792969 113.5839538574219 143.6351928710938 110.8968811035156 142.4051818847656 108.4683837890625 C 141.2401733398438 106.2267456054688 139.725341796875 104.4945220947266 137.80712890625 103.2368774414062 C 135.9768981933594 102.0253143310547 134.1447448730469 101.4927368164062 131.8402709960938 101.4927368164062 C 129.5423278808594 101.4927368164062 127.5276794433594 102.0777435302734 125.4999084472656 103.333740234375 C 123.4854736328125 104.6055908203125 121.7881774902344 106.4343872070312 120.6421203613281 108.5907440185547 C 119.3418273925781 110.970458984375 118.7023315429688 113.6688079833984 118.7023315429688 116.6831665039062 C 118.7023315429688 119.6405944824219 119.3534851074219 122.3613128662109 120.6376953125 124.7696685791016 C 121.8951110839844 127.1309509277344 123.5311889648438 128.9460906982422 125.502197265625 130.1679534912109 C 127.5448303222656 131.4331665039062 129.6187438964844 132.0488739013672 131.8402709960938 132.0488739013672 C 131.8405151367188 132.0488739013672 131.8411254882812 132.0488739013672 131.8414001464844 132.0488739013672 C 134.0176086425781 132.0488739013672 136.0361938476562 131.439453125 137.7721252441406 130.2864532470703 C 139.6763305664062 129.0542449951172 141.2111206054688 127.2578125 142.4052429199219 124.9003143310547 L 142.4071655273438 124.9012756347656 Z" stroke="none" fill="#fff"/>
      </g>
    </g>
    <g transform="matrix(1, 0, 0, 1, -15.98, -15.44)" filter="url(#Path_11)">
      <path id="Path_11-2" data-name="Path 11" d="M109.338,13.7V45.035H95.285V13.7H83.25V2.624h38.175V13.695Zm44.739,31.338V29.762H140.947V45.035H126.893V2.626h14.053v16.41H154.08V2.626h14.053V45.035Zm34.41-31.774v5.162h19.831V29.1H188.488v5.252h22.327V45.035H174.349V2.626h35.9V13.3c0-.044-21.759-.044-21.759-.044Z" transform="translate(135.38 3.88)" fill="#fff" stroke="#fff" stroke-width="1"/>
    </g>
    <g id="Group_4" data-name="Group 4" transform="translate(171.105 328.554)">
      <g transform="matrix(1, 0, 0, 1, -187.09, -344)" filter="url(#Path_12)">
        <path id="Path_12-2" data-name="Path 12" d="M111.873,133.964V151.47a31.966,31.966,0,0,1-8.8,3.9,35.475,35.475,0,0,1-9.8,1.534,24.463,24.463,0,0,1-11.821-2.8,20.756,20.756,0,0,1-8.229-7.791,21.9,21.9,0,0,1-2.934-11.161,20.429,20.429,0,0,1,3.109-11.161,20.929,20.929,0,0,1,8.492-7.7,26.123,26.123,0,0,1,12.3-2.8,28.374,28.374,0,0,1,9.939,1.794,25.318,25.318,0,0,1,8.361,4.772l-7.923,9.671a18.753,18.753,0,0,0-4.991-3.326,14.447,14.447,0,0,0-5.473-1.227,9.037,9.037,0,0,0-4.816,1.315,9.17,9.17,0,0,0-3.37,3.589,11.387,11.387,0,0,0,0,10.284,8.3,8.3,0,0,0,3.457,3.589,9.344,9.344,0,0,0,4.9,1.315,15.323,15.323,0,0,0,5.561-1.359v-9.849l12.037-.088Zm20.576,16.371L130.3,156.33H115.9l17.861-42.411h14.4l17.2,42.414H150.442l-2.145-6H132.449Zm8.142-22.5-4.465,12.386h8.843ZM206.3,156.286v-23.2l-7.268,19.084H189.8L182.53,133.09v23.2H170.273V113.875H185.2l9.281,22.19,9.237-22.19h14.84v42.414Zm32.351-31.774v5.162h19.831v10.681H238.654v5.252H260.98v10.679H224.515V113.875h35.9v10.681Z" transform="translate(116.8 230.51)" fill="#fff"/>
      </g>
    </g>
  </g>
</svg>
