<svg
	xmlns="http://www.w3.org/2000/svg"
	width="271.227"
	height="125.898"
	viewBox="0 0 271.227 125.898"
>
	<g
		id="Path_13"
		data-name="Path 13"
		transform="matrix(0.966, -0.259, 0.259, 0.966, 9.798, 74.217)"
		fill="#e2231a"
		stroke-linecap="round"
		stroke-linejoin="round"
	>
		<path
			d="M 77.61058807373047 48.22949981689453 L 73.73680877685547 47.23257064819336 L 43.05681610107422 39.33678436279297 L 43.49037933349609 43.47003555297852 L 39.04884338378906 43.47003555297852 L 22.70294952392578 43.47003555297852 L 19.77294921875 43.47003555297852 L 15.77294921875 43.47003555297852 L 2.036830301221926e-05 43.47003555297852 L -3.999979734420776 43.47003555297852 L -3.999979734420776 39.47003555297852 L -3.999979734420776 3.862427473068237 L -3.999979734420776 -0.1375724226236343 L 2.036830301221926e-05 -0.1375724226236343 L 23.27676963806152 -0.1375367045402527 C 29.81398391723633 -0.1375367045402527 33.73437881469727 2.273784637451172 35.87202072143555 4.296641826629639 C 38.68194961547852 6.955641746520996 40.22941207885742 10.58664226531982 40.22941207885742 14.52078437805176 C 40.22941207885742 16.80453491210938 39.72794723510742 18.93499946594238 38.73891448974609 20.85292816162109 C 38.38235855102539 21.54439735412598 37.96834182739258 22.19708824157715 37.49868011474609 22.80896186828613 C 37.8999137878418 23.41265296936035 38.28179931640625 24.03550148010254 38.64353561401367 24.67620468139648 L 45.25077056884766 -0.9969652891159058 L 46.24773406982422 -4.870715141296387 L 50.12152099609375 -3.873786687850952 L 83.28498840332031 4.661146640777588 L 83.28498840332031 3.862427473068237 L 83.28498840332031 -0.1375724226236343 L 87.28498840332031 -0.1375724226236343 L 109.5577011108398 -0.137608140707016 C 115.7660598754883 -0.137608140707016 120.4845886230469 1.400320410728455 123.5822372436523 4.433427810668945 C 124.1742401123047 5.013088226318359 124.7004547119141 5.641385555267334 125.1587677001953 6.314979076385498 L 125.1587677001953 3.862427473068237 L 125.1587677001953 -0.1375724226236343 L 129.1587677001953 -0.1375724226236343 L 144.9308471679688 -0.1375724226236343 L 148.9308471679688 -0.1375724226236343 L 148.9308471679688 3.862427473068237 L 148.9308471679688 26.53299903869629 L 158.7437744140625 26.53299903869629 L 159.5717315673828 26.53299903869629 L 159.5717315673828 3.861606121063232 L 159.5717315673828 -0.1383938491344452 L 163.5717315673828 -0.1383938491344452 L 195.1716918945312 -0.1383938491344452 L 203.4344177246094 -0.1383938491344452 L 220.640625 -0.1383938491344452 L 222.5587310791016 -0.1383938491344452 L 223.7596282958984 1.357249021530151 L 225.8254241943359 3.930038213729858 L 227.7426300048828 1.428427577018738 L 228.9434509277344 -0.1383938491344452 L 230.91748046875 -0.1383938491344452 L 248.0279083251953 -0.1383938491344452 L 256.1592102050781 -0.1383938491344452 L 251.1965484619141 6.302855968475342 L 239.625244140625 21.3217830657959 L 252.0245971679688 36.98667907714844 L 257.15576171875 43.4692497253418 L 248.8881988525391 43.4692497253418 L 231.6341247558594 43.4692497253418 L 229.7077026367188 43.4692497253418 L 228.5066680908203 41.96303558349609 L 226.04833984375 38.88002014160156 L 223.7146606445312 41.90999984741211 L 222.5137329101562 43.4692497253418 L 220.5456237792969 43.4692497253418 L 203.4344177246094 43.4692497253418 L 203.1793365478516 43.4692497253418 L 199.1793365478516 43.4692497253418 L 163.5717315673828 43.4692497253418 L 162.7437744140625 43.4692497253418 L 162.7437744140625 43.47003555297852 L 158.7437744140625 43.47003555297852 L 129.1587677001953 43.47003555297852 L 125.1587677001953 43.47003555297852 L 125.1587677001953 39.47003555297852 L 125.1587677001953 38.44158172607422 C 124.8008651733398 38.85114669799805 124.4145736694336 39.23935699462891 124.0004119873047 39.60542678833008 C 122.5543060302734 40.88364028930664 120.7971954345703 41.86153411865234 118.7778396606445 42.511962890625 C 116.8041610717773 43.14767837524414 114.5703811645508 43.47003555297852 112.1385192871094 43.47003555297852 L 87.28498840332031 43.47003555297852 L 83.28498840332031 43.47003555297852 L 83.28498840332031 39.47003555297852 L 83.28498840332031 26.18106269836426 L 78.60755920410156 44.35574722290039 L 77.61058807373047 48.22949981689453 Z M 203.1793365478516 9.98776912689209 L 203.1793365478516 33.25336074829102 L 212.2671051025391 21.47980690002441 L 203.1793365478516 9.98776912689209 Z"
			stroke="none"
		/>
		<path
			d="M 49.12455749511719 7.62939453125e-06 L 40.24974060058594 34.4840087890625 L 74.73377990722656 43.3587760925293 L 83.60855102539062 8.874774932861328 L 49.12455749511719 7.62939453125e-06 M 64.42744445800781 25.91012191772461 L 57.69613647460938 24.17758369445801 L 59.42863464355469 17.44631576538086 L 66.15994262695312 19.17800712585449 L 64.42744445800781 25.91012191772461 M 163.5717468261719 3.861621856689453 L 163.5717468261719 39.46923828125 L 199.1793212890625 39.46923828125 L 199.1793212890625 3.861621856689453 L 163.5717468261719 3.861621856689453 M 184.849365234375 25.13923835754395 L 177.8986206054688 25.13923835754395 L 177.8986206054688 18.18927574157715 L 184.849365234375 18.18927574157715 L 184.849365234375 25.13923835754395 M 203.4344024658203 3.861621856689453 L 217.3430938720703 21.45000648498535 L 203.4344024658203 39.46923828125 L 220.5456237792969 39.46923828125 L 225.9937133789062 32.39558410644531 L 231.6341247558594 39.46923828125 L 248.8881683349609 39.46923828125 L 234.5501251220703 21.35504531860352 L 248.0279388427734 3.861621856689453 L 230.91748046875 3.861621856689453 L 225.8987426757812 10.41016006469727 L 220.6405944824219 3.861621856689453 L 203.4344024658203 3.861621856689453 M 109.5577087402344 3.862392425537109 L 87.28497314453125 3.862430572509766 L 87.28497314453125 39.47004699707031 L 112.1385192871094 39.47004699707031 C 120.4551239013672 39.47004699707031 124.3266677856445 35.12092971801758 124.3266677856445 29.62404632568359 C 124.3266677856445 26.56512260437012 123.2277450561523 23.84096908569336 118.7349395751953 21.45154571533203 C 122.3195953369141 19.39608383178711 123.3706283569336 16.71900749206543 123.3706283569336 13.80331420898438 C 123.3706283569336 9.69293212890625 121.0765533447266 3.862392425537109 109.5577087402344 3.862392425537109 M 103.4401702880859 17.96181488037109 L 103.0579376220703 17.96181488037109 L 103.0579376220703 11.03181457519531 L 104.0139312744141 11.03181457519531 C 107.2161712646484 11.03181457519531 108.1724395751953 12.51277732849121 108.1724395751953 14.47289276123047 C 108.1724395751953 17.00558471679688 106.8815460205078 17.96181488037109 103.4401702880859 17.96181488037109 M 103.5351715087891 31.63193130493164 L 103.0579376220703 31.63193130493164 L 103.0579376220703 23.93662261962891 L 104.1568298339844 23.93662261962891 C 107.4549407958984 23.93662261962891 108.5538940429688 25.6088924407959 108.5538940429688 27.95146942138672 C 108.5538940429688 30.62796783447266 107.1677398681641 31.63193130493164 103.5351715087891 31.63193130493164 M -3.0517578125e-05 3.862430572509766 L -3.0517578125e-05 39.47004699707031 L 15.77293395996094 39.47004699707031 L 15.77293395996094 26.27877616882324 C 20.02659606933594 26.27877616882324 22.03398132324219 30.00608444213867 22.70294189453125 39.47004699707031 L 39.048828125 39.47004699707031 C 38.33189392089844 32.63520050048828 35.98997497558594 26.75712203979492 32.16670227050781 22.40762329101562 C 34.7952880859375 20.5913143157959 36.22940063476562 17.8183536529541 36.22940063476562 14.52081489562988 C 36.22940063476562 9.215160369873047 32.26240539550781 3.862430572509766 23.27674865722656 3.862430572509766 L -3.0517578125e-05 3.862430572509766 M 16.20304870605469 18.0576229095459 L 15.77293395996094 18.0576229095459 L 15.77293395996094 11.17465972900391 L 16.72897338867188 11.17465972900391 C 19.69204711914062 11.17465972900391 20.45651245117188 13.18254661560059 20.45651245117188 14.71231460571289 C 20.45651245117188 17.00639152526855 19.07078552246094 18.0576229095459 16.20304870605469 18.0576229095459 M 129.1587829589844 3.862430572509766 L 129.1587829589844 39.47004699707031 L 158.7437438964844 39.47004699707031 L 158.7437438964844 30.53300857543945 L 144.9308166503906 30.53300857543945 L 144.9308166503906 3.862430572509766 L 129.1587829589844 3.862430572509766 M 49.11891174316406 -8.001922607421875 C 49.77900695800781 -8.001922607421875 50.44960021972656 -7.919658660888672 51.11843872070312 -7.747531890869141 L 80.39881896972656 -0.2119636535644531 C 81.7923583984375 -2.561977386474609 84.35475158691406 -4.137569427490234 87.28497314453125 -4.137569427490234 L 109.5577087402344 -4.137607574462891 C 115.1953277587891 -4.137607574462891 119.5589141845703 -2.952857971191406 122.8499984741211 -1.057415008544922 C 124.3141098022461 -2.932353973388672 126.595573425293 -4.137569427490234 129.1587829589844 -4.137569427490234 L 144.9308166503906 -4.137569427490234 C 149.3490905761719 -4.137569427490234 152.9308166503906 -0.5558395385742188 152.9308166503906 3.862430572509766 L 152.9308166503906 22.53300666809082 L 155.5717468261719 22.53300666809082 L 155.5717468261719 3.861621856689453 C 155.5717468261719 -0.5566482543945312 159.1534729003906 -4.138378143310547 163.5717468261719 -4.138378143310547 L 199.1793212890625 -4.138378143310547 C 199.9171447753906 -4.138378143310547 200.6317596435547 -4.038455963134766 201.3101348876953 -3.851478576660156 C 201.9922943115234 -4.039375305175781 202.705810546875 -4.138378143310547 203.4344024658203 -4.138378143310547 L 220.6405944824219 -4.138378143310547 C 222.5360412597656 -4.138378143310547 224.3514099121094 -3.466457366943359 225.7790222167969 -2.270072937011719 C 227.2052307128906 -3.465179443359375 229.0202178955078 -4.138378143310547 230.91748046875 -4.138378143310547 L 248.0279388427734 -4.138378143310547 C 251.0767822265625 -4.138378143310547 253.860595703125 -2.405414581298828 255.2064056396484 0.330352783203125 C 256.5521545410156 3.066123962402344 256.2259826660156 6.328968048095703 254.3652038574219 8.744159698486328 L 244.7003631591797 21.28858184814453 L 255.1609344482422 34.50412368774414 C 257.0649108886719 36.9095458984375 257.4256591796875 40.19189071655273 256.089599609375 42.95343017578125 C 254.7535095214844 45.71493148803711 251.9559326171875 47.46923828125 248.8881683349609 47.46923828125 L 231.6341247558594 47.46923828125 C 229.5538177490234 47.46923828125 227.5701446533203 46.65971374511719 226.0898742675781 45.23658752441406 C 224.6107940673828 46.65864944458008 222.6277313232422 47.46923828125 220.5456237792969 47.46923828125 L 203.4344024658203 47.46923828125 C 202.7059326171875 47.46923828125 201.9923400878906 47.37023544311523 201.3101501464844 47.18233489990234 C 200.6317749023438 47.36931610107422 199.9171447753906 47.46923828125 199.1793212890625 47.46923828125 L 163.5717468261719 47.46923828125 C 162.7309265136719 47.46923828125 161.9203491210938 47.33950424194336 161.1590270996094 47.09898376464844 C 160.3968505859375 47.34009552001953 159.5856628417969 47.47004699707031 158.7437438964844 47.47004699707031 L 129.1587829589844 47.47004699707031 C 126.8603897094727 47.47004699707031 124.788330078125 46.5007438659668 123.3291320800781 44.94868087768555 C 120.3765716552734 46.52644348144531 116.6625671386719 47.47004699707031 112.1385192871094 47.47004699707031 L 87.28497314453125 47.47004699707031 C 85.427490234375 47.47004699707031 83.71815490722656 46.83722305297852 82.36036682128906 45.77510070800781 C 81.089111328125 49.79905700683594 76.87596130371094 52.17074584960938 72.73989868164062 51.10631561279297 L 45.56413269042969 44.11239242553711 C 45.38847351074219 44.35890960693359 45.19816589355469 44.59637451171875 44.99343872070312 44.82369995117188 C 43.476318359375 46.50823974609375 41.31578063964844 47.47004699707031 39.048828125 47.47004699707031 L 22.70294189453125 47.47004699707031 C 21.4649658203125 47.47004699707031 20.28892517089844 47.18777465820312 19.23857116699219 46.68245697021484 C 18.19003295898438 47.18719863891602 17.01449584960938 47.47004699707031 15.77293395996094 47.47004699707031 L -3.0517578125e-05 47.47004699707031 C -4.418289184570312 47.47004699707031 -8.000030517578125 43.88831329345703 -8.000030517578125 39.47004699707031 L -8.000030517578125 3.862430572509766 C -8.000030517578125 -0.5558395385742188 -4.418289184570312 -4.137569427490234 -3.0517578125e-05 -4.137569427490234 L 23.27674865722656 -4.137569427490234 C 30.96975708007812 -4.137569427490234 36.61117553710938 -1.2020263671875 40.08978271484375 3.007743835449219 L 41.37701416015625 -1.993915557861328 C 42.30607604980469 -5.603931427001953 45.5560302734375 -8.001922607421875 49.11891174316406 -8.001922607421875 Z"
			stroke="none"
			fill="#fff"
		/>
	</g>
</svg>
